# Blender 4.5.3 LTS
# www.blender.org
mtllib plank.mtl
o Plank_6
v -0.762427 0.000000 -0.090831
v 0.762427 0.038534 -0.090831
v 0.762427 0.000000 -0.090831
v -0.762427 0.000000 -0.090831
v 0.762427 -0.000000 0.090831
v -0.762427 -0.000000 0.090831
v -0.762427 0.000000 -0.090831
v -0.762427 0.038534 0.090831
v -0.762427 0.038534 -0.090831
v 0.762427 0.000000 -0.090831
v 0.762427 0.038534 0.090831
v 0.762427 -0.000000 0.090831
v -0.762427 0.038534 -0.090831
v 0.762427 0.038534 0.090831
v 0.762427 0.038534 -0.090831
v -0.762427 -0.000000 0.090831
v 0.762427 0.038534 0.090831
v -0.762427 0.038534 0.090831
v -0.762427 0.038534 -0.090831
v 0.762427 0.038534 -0.090831
v -0.762427 0.000000 -0.090831
v 0.762427 0.000000 -0.090831
v 0.762427 -0.000000 0.090831
v -0.762427 0.000000 -0.090831
v -0.762427 -0.000000 0.090831
v -0.762427 0.038534 0.090831
v -0.762427 0.000000 -0.090831
v 0.762427 0.038534 -0.090831
v 0.762427 0.038534 0.090831
v 0.762427 0.000000 -0.090831
v -0.762427 0.038534 0.090831
v 0.762427 0.038534 0.090831
v -0.762427 0.038534 -0.090831
v 0.762427 -0.000000 0.090831
v 0.762427 0.038534 0.090831
v -0.762427 -0.000000 0.090831
vn -0.0000 -0.0000 -1.0000
vn -0.0000 -1.0000 -0.0000
vn -1.0000 -0.0000 -0.0000
vn 1.0000 -0.0000 -0.0000
vn -0.0000 1.0000 -0.0000
vn -0.0000 -0.0000 1.0000
vt 1.000000 0.126850
vt 0.000000 0.150593
vt 0.000000 0.126850
vt 0.000000 0.027862
vt 1.000000 0.150520
vt 0.000000 0.150520
vt 0.472892 0.126850
vt 0.527108 0.150593
vt 0.472892 0.150593
vt 0.527108 0.126850
vt 1.000000 0.027862
vt 1.000000 0.150593
s 1
usemtl Planks
f 1/1/1 2/2/1 3/3/1
f 4/4/2 5/5/2 6/6/2
f 7/7/3 8/8/3 9/9/3
f 10/10/4 11/9/4 12/7/4
f 13/6/5 14/11/5 15/5/5
f 16/3/6 17/12/6 18/2/6
f 19/12/1 20/2/1 21/1/1
f 22/11/2 23/5/2 24/4/2
f 25/10/3 26/8/3 27/7/3
f 28/8/4 29/9/4 30/10/4
f 31/4/5 32/11/5 33/6/5
f 34/1/6 35/12/6 36/3/6
