# Blender 4.5.3 LTS
# www.blender.org
mtllib water.mtl
o Plane
v -30.000000 0.000000 500.000000
v 30.000000 0.000000 500.000000
v -30.000000 0.000000 -500.000000
v 30.000000 0.000000 -500.000000
v -30.000000 0.000000 0.000000
v 30.000000 0.000000 0.000000
v -30.000000 0.000000 250.000000
v 30.000000 0.000000 250.000000
v 30.000000 0.000000 -250.000000
v -30.000000 0.000000 -250.000000
v 30.000000 0.000000 125.000000
v -30.000000 0.000000 125.000000
v -30.000000 0.000000 374.513397
v 30.000000 0.000000 374.513397
v -30.000000 0.000000 -125.226852
v 30.000000 0.000000 -125.226852
v 30.000000 0.000000 -375.000000
v -30.000000 0.000000 -375.000000
vn -0.0000 1.0000 -0.0000
vt 0.000000 0.000000
vt 1.000000 0.000000
vt 1.000000 1.000000
vt 0.000000 1.000000
s 0
usemtl Material.001
f 18/1/1 17/2/1 4/3/1 3/4/1
f 12/1/1 11/2/1 6/3/1 5/4/1
f 13/1/1 14/2/1 8/3/1 7/4/1
f 15/1/1 16/2/1 9/3/1 10/4/1
f 7/1/1 8/2/1 11/3/1 12/4/1
f 1/1/1 2/2/1 14/3/1 13/4/1
f 5/1/1 6/2/1 16/3/1 15/4/1
f 10/1/1 9/2/1 17/3/1 18/4/1
