# Blender 4.5.3 LTS
# www.blender.org
mtllib floor.mtl.mtl
o Plane
o Cylinder
v -120.000000 0.000022 -500.000000
v -120.000000 -0.000022 500.000000
v -120.576447 -5.852688 -500.000000
v -120.576447 -5.852732 500.000000
v -122.283615 -11.480482 -500.000000
v -122.283615 -11.480526 500.000000
v -125.055908 -16.667086 -500.000000
v -125.055908 -16.667128 500.000000
v -128.786804 -21.213182 -500.000000
v -128.786804 -21.213224 500.000000
v -133.332886 -24.944067 -500.000000
v -133.332886 -24.944109 500.000000
v -138.519501 -27.716364 -500.000000
v -138.519501 -27.716406 500.000000
v -144.147293 -29.423536 -500.000000
v -144.147293 -29.423578 500.000000
v -150.000000 -29.999979 -500.000000
v -150.000000 -30.000021 500.000000
v -155.852707 -29.423536 -500.000000
v -155.852707 -29.423578 500.000000
v -161.480499 -27.716364 -500.000000
v -161.480499 -27.716406 500.000000
v -166.667114 -24.944067 -500.000000
v -166.667114 -24.944109 500.000000
v -171.213196 -21.213182 -500.000000
v -171.213196 -21.213224 500.000000
v -174.944092 -16.667086 -500.000000
v -174.944092 -16.667128 500.000000
v -177.716385 -11.480482 -500.000000
v -177.716385 -11.480526 500.000000
v -179.423553 -5.852688 -500.000000
v -179.423553 -5.852732 500.000000
v -180.000000 0.000022 -500.000000
v -180.000000 -0.000022 500.000000
vn 0.9952 -0.0980 -0.0000
vn 0.9569 -0.2903 -0.0000
vn 0.8819 -0.4714 -0.0000
vn 0.7730 -0.6344 -0.0000
vn 0.6344 -0.7730 -0.0000
vn 0.4714 -0.8819 -0.0000
vn 0.2903 -0.9569 -0.0000
vn 0.0980 -0.9952 -0.0000
vn -0.0980 -0.9952 -0.0000
vn -0.2903 -0.9569 -0.0000
vn -0.4714 -0.8819 -0.0000
vn -0.6344 -0.7730 -0.0000
vn -0.7730 -0.6344 -0.0000
vn -0.8819 -0.4714 -0.0000
vn -0.9569 -0.2903 -0.0000
vn -0.9952 -0.0980 -0.0000
vn -0.0000 -0.0000 1.0000
vn -0.0000 -0.0000 -1.0000
vt 0.750000 0.500000
vt 0.750000 1.000000
vt 0.718750 1.000000
vt 0.718750 0.500000
vt 0.687500 1.000000
vt 0.687500 0.500000
vt 0.656250 1.000000
vt 0.656250 0.500000
vt 0.625000 1.000000
vt 0.625000 0.500000
vt 0.593750 1.000000
vt 0.593750 0.500000
vt 0.562500 1.000000
vt 0.562500 0.500000
vt 0.531250 1.000000
vt 0.531250 0.500000
vt 0.500000 1.000000
vt 0.500000 0.500000
vt 0.468750 1.000000
vt 0.468750 0.500000
vt 0.437500 1.000000
vt 0.437500 0.500000
vt 0.406250 1.000000
vt 0.406250 0.500000
vt 0.375000 1.000000
vt 0.375000 0.500000
vt 0.343750 1.000000
vt 0.343750 0.500000
vt 0.312500 1.000000
vt 0.312500 0.500000
vt 0.281250 1.000000
vt 0.281250 0.500000
vt 0.250000 1.000000
vt 0.250000 0.500000
vt 0.010000 0.250000
vt 0.014612 0.203178
vt 0.028269 0.158156
vt 0.050447 0.116663
vt 0.080294 0.080294
vt 0.116663 0.050447
vt 0.158156 0.028269
vt 0.203178 0.014612
vt 0.250000 0.010000
vt 0.296822 0.014612
vt 0.341844 0.028269
vt 0.383337 0.050447
vt 0.419706 0.080294
vt 0.449553 0.116663
vt 0.471731 0.158156
vt 0.485388 0.203178
vt 0.490000 0.250000
vt 0.990000 0.250000
vt 0.985388 0.203178
vt 0.971731 0.158156
vt 0.949553 0.116663
vt 0.919706 0.080294
vt 0.883337 0.050447
vt 0.841844 0.028269
vt 0.796822 0.014612
vt 0.750000 0.010000
vt 0.703178 0.014612
vt 0.658156 0.028269
vt 0.616663 0.050447
vt 0.580294 0.080294
vt 0.550447 0.116663
vt 0.528269 0.158156
vt 0.514612 0.203178
vt 0.510000 0.250000
s 0
f 1/1/1 2/2/1 4/3/1 3/4/1
f 3/4/2 4/3/2 6/5/2 5/6/2
f 5/6/3 6/5/3 8/7/3 7/8/3
f 7/8/4 8/7/4 10/9/4 9/10/4
f 9/10/5 10/9/5 12/11/5 11/12/5
f 11/12/6 12/11/6 14/13/6 13/14/6
f 13/14/7 14/13/7 16/15/7 15/16/7
f 15/16/8 16/15/8 18/17/8 17/18/8
f 17/18/9 18/17/9 20/19/9 19/20/9
f 19/20/10 20/19/10 22/21/10 21/22/10
f 21/22/11 22/21/11 24/23/11 23/24/11
f 23/24/12 24/23/12 26/25/12 25/26/12
f 25/26/13 26/25/13 28/27/13 27/28/13
f 27/28/14 28/27/14 30/29/14 29/30/14
f 29/30/15 30/29/15 32/31/15 31/32/15
f 31/32/16 32/31/16 34/33/16 33/34/16
f 34/35/17 32/36/17 30/37/17 28/38/17 26/39/17 24/40/17 22/41/17 20/42/17 18/43/17 16/44/17 14/45/17 12/46/17 10/47/17 8/48/17 6/49/17 4/50/17 2/51/17
f 1/52/18 3/53/18 5/54/18 7/55/18 9/56/18 11/57/18 13/58/18 15/59/18 17/60/18 19/61/18 21/62/18 23/63/18 25/64/18 27/65/18 29/66/18 31/67/18 33/68/18
o Plane.001
o Plane.003
v -500.000000 0.000000 500.000000
v -180.000000 0.000000 500.000000
v -500.000000 0.000000 -500.000000
v -180.000000 0.000000 -500.000000
v -119.999985 0.000000 499.999969
v 500.000000 0.000000 499.999969
v -119.999985 0.000000 -499.999969
v 500.000000 0.000000 -499.999969
vn -0.0000 1.0000 -0.0000
vt -74.828407 -74.824120
vt 75.828407 -74.824120
vt 75.828407 75.824120
vt -74.828407 75.824120
s 0
usemtl Material.001
f 35/69/19 36/70/19 38/71/19 37/72/19
f 39/69/19 40/70/19 42/71/19 41/72/19
