# Blender 4.5.3 LTS
# www.blender.org
mtllib grass.mtl
o Cylinder.001
v 0.000326 -0.014651 0.011699
v -0.002353 0.051095 0.024823
v 0.012876 -0.014651 0.033437
v 0.008045 0.051095 0.042834
v -0.012225 -0.014651 0.033437
v -0.012751 0.051095 0.042834
v -0.014233 0.135369 0.022568
v -0.007022 0.135369 0.035057
v -0.021444 0.135369 0.035057
v -0.010819 0.207830 0.023449
v 0.044121 0.046435 -0.041474
v 0.050965 -0.009134 -0.046778
v 0.061573 -0.009134 -0.028405
v 0.052909 0.046435 -0.026252
v 0.040357 -0.009134 -0.028405
v 0.035332 0.046435 -0.026252
v 0.036664 0.109476 -0.043768
v 0.042759 0.109476 -0.033212
v 0.030569 0.109476 -0.033212
v 0.040529 0.165337 -0.031187
v -0.036080 0.045703 -0.061626
v -0.032425 -0.010963 -0.059214
v -0.021608 -0.010963 -0.040478
v -0.027118 0.045703 -0.046103
v -0.043242 -0.010963 -0.040478
v -0.045043 0.045703 -0.046103
v -0.043542 0.109517 -0.055101
v -0.038140 0.109517 -0.045744
v -0.048945 0.109517 -0.045744
v -0.040036 0.157852 -0.043571
vn 0.8582 0.1339 -0.4955
vn -0.0000 -0.1415 0.9899
vn -0.8582 -0.1342 -0.4955
vn -0.8642 0.0644 -0.4990
vn -0.8651 0.0468 -0.4995
vn -0.0000 0.0919 0.9958
vn 0.8610 0.1081 -0.4971
vn 0.8559 0.1526 -0.4941
vn -0.0000 0.1582 0.9874
vn 0.8655 -0.0347 -0.4997
vn -0.0000 -0.0387 0.9993
vn -0.8598 -0.1198 -0.4964
vn -0.8645 -0.0588 -0.4992
vn -0.8534 0.1700 -0.4927
vn -0.0000 0.1097 0.9940
vn 0.8630 0.0839 -0.4982
vn -0.0000 -0.0362 0.9993
vn 0.8648 0.0526 -0.4993
vn 0.8655 0.0346 -0.4997
vn -0.0000 0.0988 0.9951
vn -0.8649 -0.0501 -0.4994
vn -0.8635 -0.0769 -0.4985
vn -0.8520 0.1792 -0.4920
vn -0.0000 -0.0056 1.0000
vn 0.8561 0.1507 -0.4943
vn -0.0000 -0.0449 0.9990
vn 0.8647 0.0564 -0.4992
s 1
usemtl Material.001
f 1//1 2//1 4//1 3//1
f 3//2 4//2 6//2 5//2
f 2//3 6//3 9//3 7//3
f 5//4 6//4 2//4 1//4
f 7//5 9//5 10//5
f 6//6 4//6 8//6 9//6
f 4//7 2//7 7//7 8//7
f 12//8 11//8 14//8 13//8
f 9//9 8//9 10//9
f 8//10 7//10 10//10
f 13//11 14//11 16//11 15//11
f 11//12 16//12 19//12 17//12
f 15//13 16//13 11//13 12//13
f 17//14 19//14 20//14
f 16//15 14//15 18//15 19//15
f 14//16 11//16 17//16 18//16
f 19//17 18//17 20//17
f 18//18 17//18 20//18
f 22//19 21//19 24//19 23//19
f 23//20 24//20 26//20 25//20
f 21//21 26//21 29//21 27//21
f 25//22 26//22 21//22 22//22
f 27//23 29//23 30//23
f 26//24 24//24 28//24 29//24
f 24//25 21//25 27//25 28//25
f 29//26 28//26 30//26
f 28//27 27//27 30//27
